<mxfile host="Electron" agent="Mozilla/5.0 (Windows NT 10.0; Win64; x64) AppleWebKit/537.36 (KHTML, like Gecko) draw.io/27.0.9 Chrome/134.0.6998.205 Electron/35.4.0 Safari/537.36" version="27.0.9">
  <diagram name="ESG Data Mining ER - Relacionamentos Claros" id="0">
    <mxGraphModel dx="1025" dy="562" grid="1" gridSize="10" guides="1" tooltips="1" connect="1" arrows="1" fold="1" page="1" pageScale="1" pageWidth="850" pageHeight="1100" background="none" math="0" shadow="0">
      <root>
        <mxCell id="0" />
        <mxCell id="1" parent="0" />
        <mxCell id="usuario" value="👤 Usuario" style="swimlane;html=1;childLayout=stackLayout;horizontal=1;startSize=26;fillColor=#d5e8d4;fontSize=10;fontFamily=Verdana;" parent="1" vertex="1">
          <mxGeometry x="40" y="40" width="240" height="140" as="geometry" />
        </mxCell>
        <mxCell id="usuario-1" value="+ id: UUID" style="text;html=1;strokeColor=none;fillColor=none;align=left;fontStyle=1;spacingLeft=4;" parent="usuario" vertex="1">
          <mxGeometry y="26" width="240" height="26" as="geometry" />
        </mxCell>
        <mxCell id="usuario-2" value="+ nome: String" style="text;html=1;strokeColor=none;fillColor=none;align=left;spacingLeft=4;" parent="usuario" vertex="1">
          <mxGeometry y="52" width="240" height="26" as="geometry" />
        </mxCell>
        <mxCell id="usuario-3" value="+ email: String" style="text;html=1;strokeColor=none;fillColor=none;align=left;spacingLeft=4;" parent="usuario" vertex="1">
          <mxGeometry y="78" width="240" height="26" as="geometry" />
        </mxCell>
        <mxCell id="usuario-4" value="+ tipo: Enum" style="text;html=1;strokeColor=none;fillColor=none;align=left;spacingLeft=4;" parent="usuario" vertex="1">
          <mxGeometry y="104" width="240" height="26" as="geometry" />
        </mxCell>
        <mxCell id="projeto" value="🌱 ProjetoNbS" style="swimlane;html=1;childLayout=stackLayout;horizontal=1;startSize=26;fillColor=#e1f5fe;fontSize=10;fontFamily=Verdana;" parent="1" vertex="1" collapsed="1">
          <mxGeometry x="390" y="140" width="110" height="30" as="geometry">
            <mxRectangle x="390" y="140" width="2080" height="230" as="alternateBounds" />
          </mxGeometry>
        </mxCell>
        <mxCell id="projeto-1" value="+ id: UUID" style="text;html=1;strokeColor=none;fillColor=none;align=left;fontStyle=1;spacingLeft=4;" parent="projeto" vertex="1">
          <mxGeometry y="26" width="260" height="204" as="geometry" />
        </mxCell>
        <mxCell id="projeto-2" value="+ nome: String" style="text;html=1;strokeColor=none;fillColor=none;align=left;spacingLeft=4;" parent="projeto" vertex="1">
          <mxGeometry x="260" y="26" width="260" height="204" as="geometry" />
        </mxCell>
        <mxCell id="projeto-3" value="+ descricao: Text" style="text;html=1;strokeColor=none;fillColor=none;align=left;spacingLeft=4;" parent="projeto" vertex="1">
          <mxGeometry x="520" y="26" width="260" height="204" as="geometry" />
        </mxCell>
        <mxCell id="projeto-4" value="+ tipo: Enum" style="text;html=1;strokeColor=none;fillColor=none;align=left;spacingLeft=4;" parent="projeto" vertex="1">
          <mxGeometry x="780" y="26" width="260" height="204" as="geometry" />
        </mxCell>
        <mxCell id="projeto-5" value="+ localizacao: Point" style="text;html=1;strokeColor=none;fillColor=none;align=left;spacingLeft=4;" parent="projeto" vertex="1">
          <mxGeometry x="1040" y="26" width="260" height="204" as="geometry" />
        </mxCell>
        <mxCell id="projeto-6" value="+ impacto_estimado: JSON" style="text;html=1;strokeColor=none;fillColor=none;align=left;spacingLeft=4;" parent="projeto" vertex="1">
          <mxGeometry x="1300" y="26" width="260" height="204" as="geometry" />
        </mxCell>
        <mxCell id="projeto-7" value="+ status: Enum" style="text;html=1;strokeColor=none;fillColor=none;align=left;spacingLeft=4;" parent="projeto" vertex="1">
          <mxGeometry x="1560" y="26" width="260" height="204" as="geometry" />
        </mxCell>
        <mxCell id="projeto-8" value="+ id_usuario: UUID (FK)" style="text;html=1;strokeColor=none;fillColor=#f0f0f0;fontStyle=1;align=left;spacingLeft=4;" parent="projeto" vertex="1">
          <mxGeometry x="1820" y="26" width="260" height="204" as="geometry" />
        </mxCell>
        <mxCell id="rel_usuario_projeto" value="possui (1:N)" style="endArrow=block;html=1;fontSize=10;" parent="1" source="usuario" target="projeto" edge="1">
          <mxGeometry relative="1" as="geometry" />
        </mxCell>
        <mxCell id="favorito" value="⭐ Favorito" style="swimlane;html=1;childLayout=stackLayout;horizontal=1;startSize=26;fillColor=#fff2cc;fontSize=10;fontFamily=Verdana;" parent="1" vertex="1" collapsed="1">
          <mxGeometry x="710" y="40" width="100" height="30" as="geometry">
            <mxRectangle x="710" y="40" width="400" height="80" as="alternateBounds" />
          </mxGeometry>
        </mxCell>
        <mxCell id="favorito-1" value="+ id_usuario: UUID (FK)" style="text;html=1;strokeColor=none;fillColor=#f0f0f0;fontStyle=1;align=left;spacingLeft=4;" parent="favorito" vertex="1">
          <mxGeometry y="26" width="200" height="54" as="geometry" />
        </mxCell>
        <mxCell id="favorito-2" value="+ id_projeto: UUID (FK)" style="text;html=1;strokeColor=none;fillColor=#f0f0f0;fontStyle=1;align=left;spacingLeft=4;" parent="favorito" vertex="1">
          <mxGeometry x="200" y="26" width="200" height="54" as="geometry" />
        </mxCell>
        <mxCell id="rel_fav_user" value="favorita (N:N)" style="endArrow=block;html=1;fontSize=10;" parent="1" source="favorito" target="usuario" edge="1">
          <mxGeometry relative="1" as="geometry" />
        </mxCell>
        <mxCell id="rel_fav_proj" value="é favorito de (N:N)" style="endArrow=block;html=1;fontSize=10;" parent="1" source="favorito" target="projeto" edge="1">
          <mxGeometry relative="1" as="geometry" />
        </mxCell>
        <mxCell id="fundo" value="💰 FundoESG" style="swimlane;html=1;childLayout=stackLayout;horizontal=1;startSize=26;fillColor=#d0f0c0;fontSize=10;fontFamily=Verdana;" parent="1" vertex="1" collapsed="1">
          <mxGeometry x="40" y="300" width="110" height="30" as="geometry">
            <mxRectangle x="40" y="300" width="240" height="130" as="alternateBounds" />
          </mxGeometry>
        </mxCell>
        <mxCell id="fundo-1" value="+ id: UUID" style="text;html=1;strokeColor=none;fillColor=none;fontStyle=1;align=left;spacingLeft=4;" parent="fundo" vertex="1">
          <mxGeometry y="26" width="240" height="26" as="geometry" />
        </mxCell>
        <mxCell id="fundo-2" value="+ nome: String" style="text;html=1;strokeColor=none;fillColor=none;align=left;spacingLeft=4;" parent="fundo" vertex="1">
          <mxGeometry y="52" width="240" height="26" as="geometry" />
        </mxCell>
        <mxCell id="fundo-3" value="+ criterios: JSON" style="text;html=1;strokeColor=none;fillColor=none;align=left;spacingLeft=4;" parent="fundo" vertex="1">
          <mxGeometry y="78" width="240" height="26" as="geometry" />
        </mxCell>
        <mxCell id="fundo-4" value="+ valor_disponivel: Decimal" style="text;html=1;strokeColor=none;fillColor=none;align=left;spacingLeft=4;" parent="fundo" vertex="1">
          <mxGeometry y="104" width="240" height="26" as="geometry" />
        </mxCell>
        <mxCell id="match" value="🔗 Match" style="swimlane;html=1;childLayout=stackLayout;horizontal=1;startSize=26;fillColor=#fff2cc;fontSize=10;fontFamily=Verdana;" parent="1" vertex="1" collapsed="1">
          <mxGeometry x="290" y="450" width="90" height="30" as="geometry">
            <mxRectangle x="290" y="450" width="960" height="130" as="alternateBounds" />
          </mxGeometry>
        </mxCell>
        <mxCell id="match-1" value="+ id: UUID" style="text;html=1;strokeColor=none;fillColor=none;fontStyle=1;align=left;spacingLeft=4;" parent="match" vertex="1">
          <mxGeometry y="26" width="240" height="104" as="geometry" />
        </mxCell>
        <mxCell id="match-2" value="+ id_projeto: UUID (FK)" style="text;html=1;strokeColor=none;fillColor=#f0f0f0;fontStyle=1;align=left;spacingLeft=4;" parent="match" vertex="1">
          <mxGeometry x="240" y="26" width="240" height="104" as="geometry" />
        </mxCell>
        <mxCell id="match-3" value="+ id_fundo: UUID (FK)" style="text;html=1;strokeColor=none;fillColor=#f0f0f0;fontStyle=1;align=left;spacingLeft=4;" parent="match" vertex="1">
          <mxGeometry x="480" y="26" width="240" height="104" as="geometry" />
        </mxCell>
        <mxCell id="match-4" value="+ score: Decimal" style="text;html=1;strokeColor=none;fillColor=none;align=left;spacingLeft=4;" parent="match" vertex="1">
          <mxGeometry x="720" y="26" width="240" height="104" as="geometry" />
        </mxCell>
        <mxCell id="rel_match_proj" value="relaciona (N:N)" style="endArrow=block;html=1;fontSize=10;" parent="1" source="match" target="projeto" edge="1">
          <mxGeometry relative="1" as="geometry" />
        </mxCell>
        <mxCell id="rel_match_fundo" value="apoia (N:N)" style="endArrow=block;html=1;fontSize=10;" parent="1" source="match" target="fundo" edge="1">
          <mxGeometry relative="1" as="geometry" />
        </mxCell>
        <mxCell id="geo" value="🗺️ GeoDados" style="swimlane;html=1;childLayout=stackLayout;horizontal=1;startSize=26;fillColor=#e1e1f5;fontSize=10;fontFamily=Verdana;" parent="1" vertex="1" collapsed="1">
          <mxGeometry x="710" y="310" width="110" height="30" as="geometry">
            <mxRectangle x="710" y="310" width="960" height="130" as="alternateBounds" />
          </mxGeometry>
        </mxCell>
        <mxCell id="geo-1" value="+ id: UUID" style="text;html=1;strokeColor=none;fillColor=none;fontStyle=1;align=left;spacingLeft=4;" parent="geo" vertex="1">
          <mxGeometry y="26" width="240" height="104" as="geometry" />
        </mxCell>
        <mxCell id="geo-2" value="+ tipo: Enum" style="text;html=1;strokeColor=none;fillColor=none;align=left;spacingLeft=4;" parent="geo" vertex="1">
          <mxGeometry x="240" y="26" width="240" height="104" as="geometry" />
        </mxCell>
        <mxCell id="geo-3" value="+ poligono: GeoJSON" style="text;html=1;strokeColor=none;fillColor=none;align=left;spacingLeft=4;" parent="geo" vertex="1">
          <mxGeometry x="480" y="26" width="240" height="104" as="geometry" />
        </mxCell>
        <mxCell id="geo-4" value="+ metadados: JSON" style="text;html=1;strokeColor=none;fillColor=none;align=left;spacingLeft=4;" parent="geo" vertex="1">
          <mxGeometry x="720" y="26" width="240" height="104" as="geometry" />
        </mxCell>
        <mxCell id="rel_geo_proj" value="referencia (1:N)" style="endArrow=block;html=1;fontSize=10;" parent="1" source="geo" target="projeto" edge="1">
          <mxGeometry relative="1" as="geometry" />
        </mxCell>
      </root>
    </mxGraphModel>
  </diagram>
</mxfile>
